<mxfile host="65bd71144e">
    <diagram id="jQioMgZ77aRWDrUcnonD" name="Page-1">
        <mxGraphModel dx="514" dy="1069" grid="1" gridSize="10" guides="1" tooltips="1" connect="1" arrows="1" fold="1" page="1" pageScale="1" pageWidth="850" pageHeight="1100" math="0" shadow="0">
            <root>
                <mxCell id="0"/>
                <mxCell id="1" parent="0"/>
                <mxCell id="2" value="k" style="rounded=0;orthogonalLoop=1;jettySize=auto;html=1;exitX=0;exitY=1;exitDx=0;exitDy=0;entryX=1;entryY=0;entryDx=0;entryDy=0;fontSize=28;endArrow=open;endFill=0;endSize=22;" parent="1" source="4" target="10" edge="1">
                    <mxGeometry relative="1" as="geometry"/>
                </mxCell>
                <mxCell id="3" value="*" style="edgeStyle=none;orthogonalLoop=1;jettySize=auto;html=1;exitX=0.5;exitY=1;exitDx=0;exitDy=0;entryX=0.5;entryY=0;entryDx=0;entryDy=0;fontSize=54;endArrow=open;endFill=0;endSize=22;labelBackgroundColor=none;" parent="1" source="4" target="8" edge="1">
                    <mxGeometry relative="1" as="geometry"/>
                </mxCell>
                <mxCell id="4" value="E" style="ellipse;whiteSpace=wrap;html=1;aspect=fixed;fontSize=28;fillColor=#fa6800;strokeColor=#C73500;fontColor=#000000;" parent="1" vertex="1">
                    <mxGeometry x="120" width="80" height="80" as="geometry"/>
                </mxCell>
                <mxCell id="5" value="1" style="edgeStyle=none;orthogonalLoop=1;jettySize=auto;html=1;exitX=0.5;exitY=1;exitDx=0;exitDy=0;entryX=0.5;entryY=0;entryDx=0;entryDy=0;fontSize=28;endArrow=open;endFill=0;endSize=22;dashed=1;labelBackgroundColor=none;" parent="1" source="10" target="14" edge="1">
                    <mxGeometry x="-0.3333" y="10" relative="1" as="geometry">
                        <mxPoint as="offset"/>
                    </mxGeometry>
                </mxCell>
                <mxCell id="7" value="*" style="edgeStyle=none;orthogonalLoop=1;jettySize=auto;html=1;exitX=0.5;exitY=1;exitDx=0;exitDy=0;entryX=0.5;entryY=0;entryDx=0;entryDy=0;fontSize=54;endArrow=open;endFill=0;endSize=22;dashed=1;labelBackgroundColor=none;" parent="1" source="8" target="9" edge="1">
                    <mxGeometry relative="1" as="geometry"/>
                </mxCell>
                <mxCell id="8" value="E2" style="ellipse;whiteSpace=wrap;html=1;aspect=fixed;fontSize=28;fillColor=#a20025;strokeColor=#6F0000;fontColor=#ffffff;" parent="1" vertex="1">
                    <mxGeometry x="120" y="160" width="80" height="80" as="geometry"/>
                </mxCell>
                <mxCell id="9" value="E'" style="ellipse;whiteSpace=wrap;html=1;aspect=fixed;fontSize=28;fillColor=#0050ef;strokeColor=#001DBC;fontColor=#ffffff;" parent="1" vertex="1">
                    <mxGeometry x="120" y="340" width="80" height="80" as="geometry"/>
                </mxCell>
                <mxCell id="10" value="E3" style="ellipse;whiteSpace=wrap;html=1;aspect=fixed;fontSize=28;fillColor=#60a917;strokeColor=#2D7600;fontColor=#ffffff;" parent="1" vertex="1">
                    <mxGeometry y="120" width="80" height="80" as="geometry"/>
                </mxCell>
                <mxCell id="14" value="E''=E1" style="ellipse;whiteSpace=wrap;html=1;aspect=fixed;fontSize=28;fillColor=#60a917;strokeColor=#2D7600;fontColor=#ffffff;" vertex="1" parent="1">
                    <mxGeometry y="260" width="80" height="80" as="geometry"/>
                </mxCell>
                <mxCell id="16" value="*" style="edgeStyle=none;orthogonalLoop=1;jettySize=auto;html=1;exitX=1;exitY=1;exitDx=0;exitDy=0;entryX=0;entryY=0;entryDx=0;entryDy=0;fontSize=54;endArrow=open;endFill=0;endSize=22;dashed=1;labelBackgroundColor=none;" edge="1" parent="1" source="14" target="9">
                    <mxGeometry relative="1" as="geometry">
                        <mxPoint x="33.4357287525381" y="360.00427124746193" as="sourcePoint"/>
                        <mxPoint x="-29.9957287525381" y="543.4357287525381" as="targetPoint"/>
                    </mxGeometry>
                </mxCell>
            </root>
        </mxGraphModel>
    </diagram>
</mxfile>